<?xml version="1.0" encoding="UTF-8" standalone="no"?>
<!-- Created with Inkscape (http://www.inkscape.org/) -->
<svg
   xmlns:dc="http://purl.org/dc/elements/1.1/"
   xmlns:cc="http://creativecommons.org/ns#"
   xmlns:rdf="http://www.w3.org/1999/02/22-rdf-syntax-ns#"
   xmlns:svg="http://www.w3.org/2000/svg"
   xmlns="http://www.w3.org/2000/svg"
   xmlns:xlink="http://www.w3.org/1999/xlink"
   xmlns:sodipodi="http://sodipodi.sourceforge.net/DTD/sodipodi-0.dtd"
   xmlns:inkscape="http://www.inkscape.org/namespaces/inkscape"
   width="30"
   height="30"
   id="svg2"
   sodipodi:version="0.32"
   inkscape:version="0.46"
   version="1.0"
   sodipodi:docbase="D:\gfx"
   sodipodi:docname="icon_console.svg"
   inkscape:output_extension="org.inkscape.output.svg.inkscape"
   inkscape:export-filename="D:\proj\cliparts\released\icon_console.png"
   inkscape:export-xdpi="45"
   inkscape:export-ydpi="45"
   sodipodi:modified="TRUE">
  <defs
     id="defs4">
    <linearGradient
       id="linearGradient3223">
      <stop
         style="stop-color:#2e3436;stop-opacity:1;"
         offset="0"
         id="stop3225" />
      <stop
         style="stop-color:#7b8a8e;stop-opacity:1;"
         offset="1"
         id="stop3227" />
    </linearGradient>
    <linearGradient
       id="linearGradient3212">
      <stop
         style="stop-color:#eeeeec;stop-opacity:1;"
         offset="0"
         id="stop3214" />
      <stop
         style="stop-color:#8a8a7c;stop-opacity:1;"
         offset="1"
         id="stop3217" />
    </linearGradient>
    <linearGradient
       id="linearGradient3204">
      <stop
         style="stop-color:#b0b1ae;stop-opacity:1;"
         offset="0"
         id="stop3206" />
      <stop
         style="stop-color:#5f5f5d;stop-opacity:1;"
         offset="1"
         id="stop3208" />
    </linearGradient>
    <linearGradient
       inkscape:collect="always"
       xlink:href="#linearGradient3223"
       id="linearGradient2409"
       gradientUnits="userSpaceOnUse"
       x1="6"
       y1="6"
       x2="24"
       y2="21" />
    <linearGradient
       inkscape:collect="always"
       xlink:href="#linearGradient3212"
       id="linearGradient2412"
       gradientUnits="userSpaceOnUse"
       x1="2"
       y1="2"
       x2="28"
       y2="25" />
    <linearGradient
       inkscape:collect="always"
       xlink:href="#linearGradient3204"
       id="linearGradient2415"
       gradientUnits="userSpaceOnUse"
       gradientTransform="matrix(0.9333334,0,0,0.925926,1,1)"
       x1="0"
       y1="0"
       x2="30"
       y2="27" />
    <linearGradient
       inkscape:collect="always"
       xlink:href="#linearGradient3212"
       id="linearGradient2422"
       gradientUnits="userSpaceOnUse"
       x1="2"
       y1="2"
       x2="28"
       y2="25" />
    <linearGradient
       inkscape:collect="always"
       xlink:href="#linearGradient3204"
       id="linearGradient2425"
       gradientUnits="userSpaceOnUse"
       gradientTransform="matrix(0.9333334,0,0,0.925926,1,1)"
       x1="0"
       y1="0"
       x2="30"
       y2="27" />
  </defs>
  <sodipodi:namedview
     id="base"
     pagecolor="#ffffff"
     bordercolor="#666666"
     borderopacity="1.0"
     inkscape:pageopacity="0.0"
     inkscape:pageshadow="2"
     inkscape:zoom="22.966667"
     inkscape:cx="21.596517"
     inkscape:cy="15"
     inkscape:document-units="px"
     inkscape:current-layer="layer1"
     width="30px"
     height="30px"
     showgrid="false"
     gridtolerance="10000"
     inkscape:grid-points="true"
     inkscape:window-width="1440"
     inkscape:window-height="885"
     inkscape:window-x="0"
     inkscape:window-y="0"
     showguides="true"
     inkscape:snap-global="true">
    <inkscape:grid
       type="xygrid"
       id="grid2395" />
  </sodipodi:namedview>
  <metadata
     id="metadata7">
    <rdf:RDF>
      <cc:Work
         rdf:about="">
        <dc:format>image/svg+xml</dc:format>
        <dc:type
           rdf:resource="http://purl.org/dc/dcmitype/StillImage" />
        <dc:title>icon_console</dc:title>
        <dc:date>2008-05-12</dc:date>
        <dc:creator>
          <cc:Agent>
            <dc:title>Jean-Victor Balin</dc:title>
          </cc:Agent>
        </dc:creator>
        <dc:language>fr-FR</dc:language>
        <dc:subject>
          <rdf:Bag>
            <rdf:li>icon</rdf:li>
            <rdf:li>console</rdf:li>
            <rdf:li>log</rdf:li>
          </rdf:Bag>
        </dc:subject>
        <dc:description>jean.victor.balin@gmail.com</dc:description>
        <cc:license
           rdf:resource="http://creativecommons.org/licenses/publicdomain/" />
      </cc:Work>
      <cc:License
         rdf:about="http://creativecommons.org/licenses/publicdomain/">
        <cc:permits
           rdf:resource="http://creativecommons.org/ns#Reproduction" />
        <cc:permits
           rdf:resource="http://creativecommons.org/ns#Distribution" />
        <cc:permits
           rdf:resource="http://creativecommons.org/ns#DerivativeWorks" />
      </cc:License>
    </rdf:RDF>
  </metadata>
  <g
     inkscape:label="Calque 1"
     inkscape:groupmode="layer"
     id="layer1">
    <rect
       style="fill:#427bc3;fill-opacity:1;stroke:none"
       id="rect3465"
       width="6"
       height="0"
       x="16"
       y="12.5"
       ry="0" />
    <g
       id="g2427">
      <path
         id="rect2420"
         d="M 4.9838648,1 L 25.016135,1 C 27.223196,1 29,2.7768037 29,4.9838648 L 29,22.016135 C 29,24.223196 27.223196,26 25.016135,26 L 4.9838648,26 C 2.7768037,26 1,24.223196 1,22.016135 L 1,4.9838648 C 1,2.7768037 2.7768037,1 4.9838648,1 z"
         style="fill:url(#linearGradient2425);fill-opacity:1;stroke:none" />
      <path
         id="rect2422"
         d="M 4.9440877,2 L 25.055912,2 C 26.686937,2 28,3.3130631 28,4.9440877 L 28,22.055912 C 28,23.686937 26.686937,25 25.055912,25 L 4.9440877,25 C 3.3130631,25 2,23.686937 2,22.055912 L 2,4.9440877 C 2,3.3130631 3.3130631,2 4.9440877,2 z"
         style="fill:url(#linearGradient2422);fill-opacity:1;stroke:none" />
      <path
         id="rect2424"
         d="M 5,5 L 25,5 L 25,22 L 5,22 L 5,5 z"
         style="fill:#3465a4;fill-opacity:1;stroke:none" />
      <path
         id="rect3231"
         d="M 13,26 L 17,26 L 17,28 L 13,28 L 13,26 z"
         style="fill:#555753;fill-opacity:1;stroke:none" />
      <path
         id="rect3233"
         d="M 5.5,28 L 24.5,28 C 24.777,28 25,28.223 25,28.5 C 25,28.777 24.777,29 24.5,29 L 5.5,29 C 5.223,29 5,28.777 5,28.5 C 5,28.223 5.223,28 5.5,28 z"
         style="fill:#888a85;fill-opacity:1;stroke:none" />
      <path
         id="rect3245"
         d="M 4,4 L 4,23 L 26,23 L 26,4 L 4,4 z M 5,5 L 25,5 L 25,22 L 5,22 L 5,5 z"
         style="fill:#555753;fill-opacity:1;stroke:none" />
      <g
         transform="matrix(0.868055,0,0,0.868055,2.0708439,2.0711445)"
         id="g2431">
        <path
           style="font-size:40px;font-style:normal;font-weight:normal;fill:#888a85;fill-opacity:1;stroke:none;stroke-width:1px;stroke-linecap:butt;stroke-linejoin:miter;stroke-opacity:1;font-family:Bitstream Vera Sans"
           d="M 6.53125,7.125 C 6.2914071,7.1692638 6.1192292,7.381175 6.125,7.625 L 6.125,9.75 C 6.1218547,9.9559435 6.2461885,10.142444 6.4375,10.21875 L 12.4375,12.5625 L 6.4375,14.90625 C 6.2461885,14.982556 6.1218547,15.169056 6.125,15.375 L 6.125,17.5 C 6.1214464,17.66786 6.2029692,17.826145 6.341691,17.920728 C 6.4804128,18.015311 6.6575389,18.033378 6.8125,17.96875 L 16.375,14.03125 C 16.566311,13.954944 16.690645,13.768444 16.6875,13.5625 L 16.6875,11.5625 C 16.690645,11.356556 16.566311,11.170056 16.375,11.09375 L 6.8125,7.15625 C 6.7237662,7.1187716 6.6260465,7.1079139 6.53125,7.125 L 6.53125,7.125 z"
           id="path2419" />
        <path
           style="font-size:40px;font-style:normal;font-weight:normal;fill:#eeeeec;fill-opacity:1;stroke:none;stroke-width:1px;stroke-linecap:butt;stroke-linejoin:miter;stroke-opacity:1;font-family:Bitstream Vera Sans"
           d="M 6.6217533,9.7397481 L 6.6217533,7.6118467 L 16.202077,11.55272 L 16.202077,13.561457 L 6.6217533,17.50233 L 6.6217533,15.374429 L 13.833151,12.565601 L 6.6217533,9.7397481 z"
           id="path3281" />
      </g>
      <g
         transform="matrix(0.8773124,0,0,0.8773124,2.545728,2.260416)"
         id="g2438">
        <path
           style="font-size:40px;font-style:normal;font-weight:normal;fill:#888a85;fill-opacity:1;stroke:none;stroke-width:1px;stroke-linecap:butt;stroke-linejoin:miter;stroke-opacity:1;font-family:Bitstream Vera Sans"
           d="M 16.09375,17.71875 C 15.903996,17.779018 15.776719,17.957206 15.78125,18.15625 L 15.78125,19.40625 C 15.786962,19.645468 15.979532,19.838038 16.21875,19.84375 L 22.875,19.84375 C 23.114218,19.838038 23.306788,19.645468 23.3125,19.40625 L 23.3125,18.15625 C 23.306788,17.917032 23.114218,17.724462 22.875,17.71875 L 16.21875,17.71875 C 16.177288,17.712913 16.135212,17.712913 16.09375,17.71875 L 16.09375,17.71875 z"
           id="path2424" />
        <path
           style="font-size:40px;font-style:normal;font-weight:normal;fill:#eeeeec;fill-opacity:1;stroke:none;stroke-width:1px;stroke-linecap:butt;stroke-linejoin:miter;stroke-opacity:1;font-family:Bitstream Vera Sans"
           d="M 22.881214,18.156712 L 22.881214,19.39349 L 16.215629,19.39349 L 16.215629,18.156712 L 22.881214,18.156712 z"
           id="text3274" />
      </g>
    </g>
  </g>
</svg>
